<?xml version="1.0" encoding="UTF-8" standalone="no"?>
<svg
   xmlns:dc="http://purl.org/dc/elements/1.1/"
   xmlns:cc="http://creativecommons.org/ns#"
   xmlns:rdf="http://www.w3.org/1999/02/22-rdf-syntax-ns#"
   xmlns:svg="http://www.w3.org/2000/svg"
   xmlns="http://www.w3.org/2000/svg"
   viewBox="0 0 49.959599 86.2864"
   height="86.2864"
   width="49.959599"
   xml:space="preserve"
   id="svg2"
   version="1.1"><metadata
     id="metadata8"><rdf:RDF><cc:Work
         rdf:about=""><dc:format>image/svg+xml</dc:format><dc:type
           rdf:resource="http://purl.org/dc/dcmitype/StillImage" /></cc:Work></rdf:RDF></metadata><defs
     id="defs6"><clipPath
       id="clipPath18"
       clipPathUnits="userSpaceOnUse"><path
         id="path16"
         d="M 0,64.715 H 37.47 V 0 H 0 Z" /></clipPath></defs><g
     transform="matrix(1.3333333,0,0,-1.3333333,0,86.2864)"
     id="g10"><g
       id="g12"><g
         clip-path="url(#clipPath18)"
         id="g14"><g
           transform="translate(18.7344)"
           id="g20"><path
             id="path22"
             style="fill:#fff;fill-opacity:0.5;fill-rule:nonzero;stroke:none"
             d="M 0,0 C -0.495,0 -0.959,0.245 -1.238,0.654 L -18.473,25.89 c -0.467,0.683 -0.292,1.617 0.393,2.084 0.684,0.464 1.618,0.293 2.084,-0.393 L 0,4.159 15.997,27.581 c 0.467,0.686 1.4,0.858 2.084,0.393 0.685,-0.467 0.86,-1.401 0.393,-2.084 L 1.238,0.654 C 0.959,0.245 0.495,0 0,0" /></g><g
           transform="translate(18.9561,3.7148)"
           id="g24"><path
             id="path26"
             style="fill:#fff;fill-opacity:0.5;fill-rule:nonzero;stroke:none"
             d="m 0,0 c -0.828,0 -1.5,0.672 -1.5,1.5 v 58 c 0,0.828 0.672,1.5 1.5,1.5 0.828,0 1.5,-0.672 1.5,-1.5 V 1.5 C 1.5,0.672 0.828,0 0,0" /></g></g></g></g></svg>